<mxfile host="app.diagrams.net" agent="Mozilla/5.0 (Windows NT 10.0; Win64; x64) AppleWebKit/537.36 (KHTML, like Gecko) Chrome/129.0.0.0 Safari/537.36" version="24.7.17">
  <diagram name="Página-1" id="WhW66e22i1_x834Pr7wz">
    <mxGraphModel dx="2603" dy="858" grid="1" gridSize="10" guides="1" tooltips="1" connect="1" arrows="1" fold="1" page="1" pageScale="1" pageWidth="1169" pageHeight="827" math="0" shadow="0">
      <root>
        <mxCell id="0" />
        <mxCell id="1" parent="0" />
        <mxCell id="fnUgaaNjhyxj7TysjWcS-16" value="" style="rounded=0;whiteSpace=wrap;html=1;" vertex="1" parent="1">
          <mxGeometry x="650" y="155" width="400" height="375" as="geometry" />
        </mxCell>
        <mxCell id="fnUgaaNjhyxj7TysjWcS-1" value="&lt;h1&gt;App&lt;/h1&gt;" style="rounded=0;whiteSpace=wrap;html=1;verticalAlign=top;fillColor=#d5e8d4;strokeColor=#82b366;" vertex="1" parent="1">
          <mxGeometry x="-10" y="140" width="630" height="400" as="geometry" />
        </mxCell>
        <mxCell id="fnUgaaNjhyxj7TysjWcS-2" value="Encuestas" style="rounded=0;whiteSpace=wrap;html=1;fillColor=#ffe6cc;strokeColor=#d79b00;" vertex="1" parent="1">
          <mxGeometry x="20" y="210" width="120" height="280" as="geometry" />
        </mxCell>
        <mxCell id="fnUgaaNjhyxj7TysjWcS-3" value="Estadísticas" style="rounded=0;whiteSpace=wrap;html=1;fillColor=#fff2cc;strokeColor=#d6b656;" vertex="1" parent="1">
          <mxGeometry x="170" y="210" width="120" height="280" as="geometry" />
        </mxCell>
        <mxCell id="fnUgaaNjhyxj7TysjWcS-4" value="Bomberazos" style="rounded=0;whiteSpace=wrap;html=1;fillColor=#f8cecc;strokeColor=#b85450;" vertex="1" parent="1">
          <mxGeometry x="320" y="210" width="120" height="280" as="geometry" />
        </mxCell>
        <mxCell id="fnUgaaNjhyxj7TysjWcS-5" value="Capacitación" style="rounded=0;whiteSpace=wrap;html=1;fillColor=#e1d5e7;strokeColor=#9673a6;" vertex="1" parent="1">
          <mxGeometry x="470" y="210" width="120" height="280" as="geometry" />
        </mxCell>
        <mxCell id="fnUgaaNjhyxj7TysjWcS-6" value="Web API" style="rounded=1;whiteSpace=wrap;html=1;fillColor=#f5f5f5;fontColor=#333333;strokeColor=#666666;" vertex="1" parent="1">
          <mxGeometry x="875" y="555" width="150" height="70" as="geometry" />
        </mxCell>
        <mxCell id="fnUgaaNjhyxj7TysjWcS-7" value="Base de Datos" style="rounded=1;whiteSpace=wrap;html=1;fillColor=#f5f5f5;fontColor=#333333;strokeColor=#666666;" vertex="1" parent="1">
          <mxGeometry x="875" y="685" width="150" height="70" as="geometry" />
        </mxCell>
        <mxCell id="fnUgaaNjhyxj7TysjWcS-9" value="" style="endArrow=classic;startArrow=classic;html=1;rounded=0;entryX=0.5;entryY=1;entryDx=0;entryDy=0;exitX=0.5;exitY=0;exitDx=0;exitDy=0;" edge="1" parent="1" source="fnUgaaNjhyxj7TysjWcS-7" target="fnUgaaNjhyxj7TysjWcS-6">
          <mxGeometry width="50" height="50" relative="1" as="geometry">
            <mxPoint x="780" y="450" as="sourcePoint" />
            <mxPoint x="830" y="400" as="targetPoint" />
          </mxGeometry>
        </mxCell>
        <mxCell id="fnUgaaNjhyxj7TysjWcS-10" value="Autenticación" style="rounded=0;whiteSpace=wrap;html=1;fillColor=#dae8fc;strokeColor=#6c8ebf;" vertex="1" parent="1">
          <mxGeometry x="690" y="215" width="120" height="250" as="geometry" />
        </mxCell>
        <mxCell id="fnUgaaNjhyxj7TysjWcS-11" value="Autorización" style="rounded=0;whiteSpace=wrap;html=1;fillColor=#e1d5e7;strokeColor=#9673a6;" vertex="1" parent="1">
          <mxGeometry x="890" y="215" width="120" height="250" as="geometry" />
        </mxCell>
        <mxCell id="fnUgaaNjhyxj7TysjWcS-13" value="" style="endArrow=classic;startArrow=classic;html=1;rounded=0;exitX=1;exitY=0.5;exitDx=0;exitDy=0;entryX=0;entryY=0.5;entryDx=0;entryDy=0;" edge="1" parent="1" source="fnUgaaNjhyxj7TysjWcS-1" target="fnUgaaNjhyxj7TysjWcS-10">
          <mxGeometry width="50" height="50" relative="1" as="geometry">
            <mxPoint x="650" y="455" as="sourcePoint" />
            <mxPoint x="700" y="405" as="targetPoint" />
          </mxGeometry>
        </mxCell>
        <mxCell id="fnUgaaNjhyxj7TysjWcS-14" value="" style="endArrow=classic;startArrow=classic;html=1;rounded=0;entryX=0;entryY=0.5;entryDx=0;entryDy=0;exitX=1;exitY=0.5;exitDx=0;exitDy=0;" edge="1" parent="1" source="fnUgaaNjhyxj7TysjWcS-10" target="fnUgaaNjhyxj7TysjWcS-11">
          <mxGeometry width="50" height="50" relative="1" as="geometry">
            <mxPoint x="650" y="455" as="sourcePoint" />
            <mxPoint x="700" y="405" as="targetPoint" />
          </mxGeometry>
        </mxCell>
        <mxCell id="fnUgaaNjhyxj7TysjWcS-15" value="" style="endArrow=classic;startArrow=classic;html=1;rounded=0;entryX=0.5;entryY=0;entryDx=0;entryDy=0;exitX=0.5;exitY=1;exitDx=0;exitDy=0;" edge="1" parent="1" source="fnUgaaNjhyxj7TysjWcS-11" target="fnUgaaNjhyxj7TysjWcS-6">
          <mxGeometry width="50" height="50" relative="1" as="geometry">
            <mxPoint x="650" y="455" as="sourcePoint" />
            <mxPoint x="700" y="405" as="targetPoint" />
          </mxGeometry>
        </mxCell>
      </root>
    </mxGraphModel>
  </diagram>
</mxfile>
